<svg xmlns="http://www.w3.org/2000/svg" fill="none" viewBox="0 0 291 10"><path fill="#fff" d="M7.593 0c-.348 0-.701.207-.873.52L4.284 4.869 1.852.519A1.002 1.002 0 0 0 .979 0 .993.993 0 0 0 0 .979v8.95h1.826V4.087l1.6 2.906a.986.986 0 0 0 .858.504.99.99 0 0 0 .857-.504l1.6-2.906v5.842h1.826V.98A.98.98 0 0 0 7.588 0h.005ZM78.828 0c-2.079 0-3.476 1.398-3.476 3.476V6.52c0 2.078 1.397 3.476 3.476 3.476 2.079 0 3.461-1.398 3.461-3.476V3.476C82.289 1.398 80.897 0 78.828 0Zm1.64 6.594c0 1.085-.58 1.68-1.64 1.68s-1.65-.595-1.65-1.68V3.396c0-1.08.585-1.676 1.65-1.676 1.064 0 1.64.596 1.64 1.676v3.198Z"></path><path fill="#FE3B1F" d="M290.015 8.274h-7.281v1.56h7.281v-1.56Z"></path><path fill="#fff" d="M24.467.07h-1.826V9.93h1.826V.07ZM59.538 7.17c0 .297-.126.625-.312.806a.947.947 0 0 1-.692.298h-.03c-.303 0-.726-.12-1.135-.323l-.086-.04-.908 1.342.096.06c.565.354 1.206.682 2.018.682h.05c.762-.016 1.489-.318 1.993-.833a2.811 2.811 0 0 0 .833-1.993V.07h-1.822v7.1h-.005ZM101.283 5.969 98.18.494a.965.965 0 0 0-.857-.49c-.52 0-.98.46-.98.98v8.95h1.827V4.031l3.118 5.47c.187.312.5.499.843.499.53 0 .979-.45.979-.979V.076h-1.827v5.898-.005ZM122.132 4.788a2.403 2.403 0 0 0 1.171-2.079c0-1.544-1.01-2.543-2.574-2.543h-1.967a.598.598 0 0 0-.606.605v8.462c0 .338.268.605.606.605h2.043c1.675 0 2.76-1.065 2.76-2.72a2.615 2.615 0 0 0-1.433-2.33Zm-3.083-.399V1.034h1.675c1.065 0 1.675.61 1.675 1.675 0 .943-.837 1.68-1.902 1.68h-1.453.005Zm3.623 2.73c0 .57-.172 1.054-.49 1.357-.327.328-.792.49-1.372.49h-1.756V5.251h1.529c.57 0 1.09.192 1.499.55.373.338.59.817.59 1.312v.005ZM137.297.767V9.23a.6.6 0 0 0 .605.605h4.309v-.868h-4.021V5.268h4.021V4.4h-4.021V1.035h4.021V.167h-4.309a.597.597 0 0 0-.605.605V.767ZM162.614.03a.518.518 0 0 0-.47.303l-2.825 5.838-2.841-5.848a.524.524 0 0 0-.464-.293.536.536 0 0 0-.53.525v9.279h.898V2.149l2.453 5.026c.08.176.272.292.484.292a.496.496 0 0 0 .469-.287l2.457-5.03v7.684h.893V.555a.518.518 0 0 0-.524-.525ZM220.298 7.941 216.327.318a.532.532 0 0 0-.469-.288.535.535 0 0 0-.53.525v9.279h.893v-7.78l3.976 7.633a.522.522 0 0 0 .464.283.532.532 0 0 0 .525-.53V.161h-.893v7.78h.005ZM200.665 7.941 196.694.318a.531.531 0 0 0-.469-.288.535.535 0 0 0-.53.525v9.279h.893v-7.78l3.976 7.633a.513.513 0 0 0 .464.283c.288 0 .53-.242.53-.53V.161h-.893v7.78ZM254.501 7.941 250.53.318a.532.532 0 0 0-.469-.288.535.535 0 0 0-.53.525v9.279h.893v-7.78l3.976 7.633a.513.513 0 0 0 .464.283c.288 0 .53-.242.53-.53V.161h-.893v7.78ZM235.815.162h-.893V9.84h.893V.162ZM273.686 4.692h-2.235v.867h1.948v3.224c-.278.101-.969.328-1.731.328-1.413 0-2.291-.883-2.291-2.3V3.183c0-1.423.878-2.3 2.291-2.3.696 0 1.423.368 1.63.484l.262.13.384-.776-.152-.086c-.086-.045-.131-.07-.176-.096l-.026-.015c-.302-.151-1.1-.504-1.922-.504-.933 0-1.736.302-2.306.877-.58.58-.878 1.358-.878 2.306v3.572c0 .949.293 1.726.878 2.306.575.575 1.373.878 2.306.878.767 0 1.635-.167 2.26-.439a.611.611 0 0 0 .364-.565V5.287a.601.601 0 0 0-.606-.606v.01ZM40.514.07h-1.827v8.79c0 .58.49 1.07 1.07 1.07h4.591V8.167h-3.84V.065l.006.005ZM179.936.399a.537.537 0 0 0-.504-.369.54.54 0 0 0-.505.369l-3.068 9.44h.924l.893-2.765h3.506l.893 2.765h.924l-3.068-9.44h.005Zm-1.968 5.807 1.464-4.5 1.463 4.5h-2.927Z"></path></svg>